<svg width="241" height="55" viewBox="0 0 241 55" fill="none" xmlns="http://www.w3.org/2000/svg">
<g clip-path="url(#clip0_2_3)">
<path d="M139.572 45.4571C139.586 45.1592 139.681 44.8708 139.846 44.6228L140.588 43.2074H141.255L140.78 44.6451C140.934 44.7105 141.065 44.8206 141.156 44.9613C141.248 45.102 141.295 45.2669 141.292 45.4348C141.292 45.6659 141.201 45.8876 141.038 46.0511C140.875 46.2145 140.655 46.3064 140.425 46.3064C140.194 46.3064 139.974 46.2145 139.811 46.0511C139.649 45.8876 139.557 45.6659 139.557 45.4348M142.004 45.4348C142.024 45.1356 142.124 44.8474 142.293 44.6004L143.034 43.185H143.701L143.227 44.6228C143.381 44.6881 143.512 44.7982 143.603 44.939C143.694 45.0797 143.741 45.2445 143.738 45.4124C143.738 45.6456 143.646 45.8692 143.482 46.034C143.318 46.1989 143.096 46.2915 142.864 46.2915C142.632 46.2915 142.409 46.1989 142.245 46.034C142.081 45.8692 141.989 45.6456 141.989 45.4124" fill="white"/>
<path d="M145.963 43.2148H147.445L149.025 47.9974C149.195 48.4965 149.366 49.2787 149.366 49.2787C149.366 49.2787 149.588 48.5338 149.803 47.9974L151.857 43.1254H152.027L154.088 47.9974C154.252 48.4166 154.393 48.8444 154.511 49.2787C154.511 49.2787 154.696 48.5338 154.867 47.9974L156.446 43.2148H157.802L154.711 52.2884H154.54L152.316 46.9396C152.174 46.5811 152.051 46.2156 151.946 45.8445C151.946 45.8445 151.738 46.5075 151.553 46.9396L149.277 52.2884H149.106L145.963 43.2148Z" fill="white"/>
<path d="M159.367 42.6561H160.694V47.61C160.865 47.271 161.129 46.988 161.455 46.7941C161.78 46.6002 162.154 46.5034 162.532 46.515C163.756 46.515 164.593 47.3866 164.593 48.8914V52.1841H163.266V49.0031C163.266 48.2134 162.896 47.7516 162.125 47.7516C161.934 47.7348 161.742 47.76 161.562 47.8253C161.381 47.8907 161.217 47.9946 161.081 48.13C160.945 48.2654 160.84 48.429 160.773 48.6093C160.706 48.7897 160.679 48.9825 160.694 49.1744V52.1543H159.367V42.6561Z" fill="white"/>
<path d="M168.693 51.6924L166.432 46.649H167.915L169.071 49.4203C169.212 49.7923 169.318 50.1763 169.39 50.5675C169.454 50.1761 169.556 49.7919 169.694 49.4203L170.88 46.649H172.259L168.641 55H167.211L168.693 51.6924Z" fill="white"/>
<path d="M177.746 46.649H179.073V47.6771C179.239 47.3236 179.504 47.0266 179.836 46.8228C180.168 46.619 180.552 46.5171 180.941 46.5298C182.164 46.5298 183.002 47.4014 183.002 48.9062V52.199H181.675V49.018C181.675 48.2284 181.304 47.7665 180.533 47.7665C180.342 47.7497 180.15 47.7748 179.97 47.8402C179.79 47.9055 179.626 48.0095 179.49 48.1449C179.354 48.2803 179.248 48.4439 179.182 48.6242C179.115 48.8046 179.088 48.9974 179.102 49.1893V52.1692H177.775L177.746 46.649Z" fill="white"/>
<path d="M185.248 49.4203C185.231 48.8274 185.389 48.2428 185.704 47.7412C186.019 47.2395 186.476 46.8437 187.016 46.6044C187.556 46.3651 188.155 46.2932 188.736 46.3979C189.317 46.5025 189.854 46.7791 190.277 47.192C190.701 47.605 190.992 48.1355 191.114 48.7159C191.236 49.2962 191.183 49.8999 190.961 50.4496C190.739 50.9993 190.36 51.4701 189.87 51.8016C189.381 52.1332 188.804 52.3104 188.214 52.3107C187.829 52.3216 187.446 52.255 187.087 52.1148C186.728 51.9745 186.401 51.7635 186.124 51.4941C185.848 51.2247 185.628 50.9024 185.478 50.5462C185.327 50.19 185.249 49.8072 185.248 49.4203ZM189.837 49.4203C189.859 49.1949 189.833 48.9676 189.762 48.7528C189.691 48.538 189.576 48.3404 189.425 48.1729C189.273 48.0053 189.089 47.8715 188.883 47.7798C188.677 47.6882 188.454 47.6409 188.229 47.6409C188.003 47.6409 187.781 47.6882 187.575 47.7798C187.369 47.8715 187.184 48.0053 187.032 48.1729C186.881 48.3404 186.766 48.538 186.695 48.7528C186.624 48.9676 186.598 49.1949 186.62 49.4203C186.598 49.6456 186.624 49.873 186.695 50.0878C186.766 50.3026 186.881 50.5001 187.032 50.6677C187.184 50.8352 187.369 50.9691 187.575 51.0607C187.781 51.1523 188.003 51.1997 188.229 51.1997C188.454 51.1997 188.677 51.1523 188.883 51.0607C189.089 50.9691 189.273 50.8352 189.425 50.6677C189.576 50.5001 189.691 50.3026 189.762 50.0878C189.833 49.873 189.859 49.6456 189.837 49.4203Z" fill="white"/>
<path d="M194.086 50.3217V47.7739H193.255V46.649H194.086V43.7586H195.383V46.649H196.866V47.7739H195.383V50.3515C195.383 50.9847 195.591 51.1709 195.932 51.1709C196.176 51.1699 196.412 51.0769 196.591 50.9102L197.222 51.8116C197.032 51.9909 196.808 52.1301 196.563 52.2209C196.319 52.3118 196.059 52.3524 195.798 52.3405C194.76 52.3405 194.049 51.8116 194.049 50.3291" fill="white"/>
<path d="M200.573 47.2301H201.084C201.294 47.2567 201.507 47.2379 201.709 47.175C201.911 47.1121 202.097 47.0066 202.255 46.8655C202.413 46.7244 202.539 46.551 202.625 46.3569C202.71 46.1629 202.754 45.9526 202.752 45.7402C202.762 45.5531 202.732 45.3661 202.666 45.1911C202.599 45.0161 202.497 44.8569 202.366 44.7237C202.235 44.5906 202.078 44.4863 201.904 44.4176C201.731 44.3489 201.545 44.3173 201.358 44.3248C201.019 44.3099 200.683 44.4006 200.396 44.5845C200.11 44.7685 199.886 45.0368 199.757 45.3528L198.682 44.7345C198.909 44.2204 199.289 43.7895 199.769 43.5013C200.25 43.2131 200.808 43.0818 201.366 43.1254C201.722 43.0996 202.079 43.1483 202.414 43.2685C202.75 43.3886 203.058 43.5777 203.317 43.8235C203.576 44.0694 203.782 44.3667 203.921 44.6967C204.06 45.0266 204.129 45.382 204.124 45.7402C204.152 46.382 203.926 47.0089 203.495 47.4836C203.065 47.9583 202.464 48.2422 201.826 48.2731V49.4724H200.573V47.2301ZM200.283 51.3795C200.283 51.2009 200.336 51.0264 200.435 50.878C200.534 50.7296 200.675 50.6141 200.839 50.5461C201.003 50.4781 201.184 50.4606 201.358 50.496C201.533 50.5314 201.692 50.618 201.818 50.7448C201.943 50.8716 202.028 51.033 202.061 51.2083C202.095 51.3836 202.076 51.5651 202.007 51.7297C201.938 51.8943 201.822 52.0345 201.674 52.1326C201.525 52.2308 201.351 52.2824 201.173 52.2809C201.055 52.2819 200.939 52.2592 200.83 52.2142C200.721 52.1692 200.622 52.1027 200.539 52.0187C200.456 51.9347 200.391 51.8349 200.347 51.7251C200.303 51.6153 200.282 51.4978 200.283 51.3795Z" fill="white"/>
<path d="M206.704 44.7867C206.554 44.7175 206.427 44.606 206.339 44.4659C206.251 44.3257 206.205 44.1628 206.207 43.997C206.207 43.7659 206.298 43.5442 206.461 43.3807C206.624 43.2173 206.844 43.1254 207.075 43.1254C207.305 43.1254 207.525 43.2173 207.688 43.3807C207.851 43.5442 207.942 43.7659 207.942 43.997C207.927 44.295 207.833 44.5834 207.668 44.8314L206.926 46.2468H206.259L206.704 44.7867ZM209.165 44.7867C209.013 44.7189 208.884 44.6082 208.793 44.4681C208.702 44.3279 208.654 44.1643 208.654 43.997C208.654 43.7639 208.746 43.5403 208.91 43.3754C209.074 43.2106 209.296 43.118 209.528 43.118C209.76 43.118 209.983 43.2106 210.147 43.3754C210.311 43.5403 210.403 43.7639 210.403 43.997C210.383 44.2939 210.289 44.5808 210.129 44.8314L209.388 46.2468H208.72L209.165 44.7867Z" fill="white"/>
<g filter="url(#filter0_d_2_3)">
<path d="M45.2389 22.7211C45.2404 27.2177 43.9145 31.6136 41.4289 35.3528C38.9434 39.092 35.4099 42.0063 31.2756 43.727C27.1412 45.4478 22.5918 45.8976 18.203 45.0197C13.8141 44.1417 9.7831 41.9754 6.61985 38.7948C3.45661 35.6142 1.30333 31.5623 0.432469 27.1517C-0.438396 22.7411 0.0122879 18.1701 1.72749 14.0169C3.4427 9.8638 6.34535 6.3152 10.0682 3.82011C13.791 1.32502 18.1667 -0.00441016 22.6417 1.09914e-05C28.6408 1.09914e-05 34.3941 2.39463 38.6361 6.65706C42.8781 10.9195 45.2612 16.7006 45.2612 22.7286" fill="#FDB913"/>
</g>
<path d="M33.8958 34.6255H28.7062C28.5095 34.6255 28.321 34.547 28.1819 34.4073C28.0429 34.2676 27.9648 34.0781 27.9648 33.8805V32.0479C26.8936 33.1138 25.6189 33.9511 24.2175 34.5092C22.816 35.0674 21.3167 35.335 19.8096 35.296C14.3456 35.296 10.876 32.2416 10.6165 27.8464V33.6645C10.6165 34.8835 11.0985 36.0526 11.9563 36.9146C12.8142 37.7766 13.9776 38.2609 15.1908 38.2609H30.0184C32.5762 38.2609 34.6668 36.7114 34.6594 33.9625C34.6594 34.16 34.5813 34.3495 34.4423 34.4892C34.3033 34.629 34.1147 34.7074 33.918 34.7074" fill="black"/>
<path d="M20.6622 19.4806H11.7212C11.5745 19.4796 11.4291 19.5078 11.2933 19.5635C11.1575 19.6192 11.0341 19.7013 10.93 19.8052C10.826 19.9091 10.7434 20.0326 10.687 20.1687C10.6307 20.3047 10.6017 20.4506 10.6017 20.598V26.7513C10.876 22.2816 14.6719 19.5029 20.6622 19.5029" fill="black"/>
<path d="M23.131 22.967C22.3817 22.8373 21.6108 22.9506 20.9299 23.2905C20.249 23.6305 19.6934 24.1794 19.3437 24.8577C18.9939 25.5361 18.8681 26.3087 18.9845 27.0637C19.1009 27.8187 19.4535 28.5169 19.9911 29.0571C20.5288 29.5973 21.2236 29.9516 21.9749 30.0686C22.7263 30.1855 23.4952 30.0592 24.1704 29.7077C24.8455 29.3563 25.3917 28.7981 25.7301 28.1138C26.0684 27.4296 26.1811 26.655 26.0521 25.9021C25.9255 25.17 25.5769 24.4952 25.0541 23.9698C24.5312 23.4444 23.8596 23.0942 23.131 22.967Z" fill="black"/>
<path d="M18.5122 14.5713L18.6531 14.5043L18.9719 14.3404C19.8037 13.9238 20.7071 13.6709 21.6334 13.5954C21.8855 13.5954 22.1376 13.5954 22.3748 13.5954C25.6072 13.5954 27.3346 15.3833 27.3346 18.3631V19.5029H34.6076V18.7579C34.6076 11.3084 30.1593 7.22606 23.1829 7.22606C20.7284 7.19095 18.3043 7.77493 16.1324 8.92455L15.4874 9.29703L15.3984 9.35662C15.0676 9.58188 14.7843 9.87048 14.5646 10.2059C14.3449 10.5413 14.1932 10.917 14.1181 11.3114C14.0431 11.7058 14.0461 12.1111 14.1272 12.5043C14.2082 12.8976 14.3656 13.2709 14.5903 13.6029C15.0189 14.2257 15.6645 14.6643 16.3993 14.832C16.759 14.9154 17.1307 14.9331 17.4966 14.8842C17.8697 14.8252 18.2304 14.7044 18.5641 14.5266" fill="black"/>
<path d="M66.0198 37.0764C65.8173 36.4635 65.6903 35.8281 65.6417 35.1842C64.825 35.9887 63.8396 36.5995 62.7577 36.9721C61.4194 37.4421 60.0086 37.6691 58.5912 37.6425C55.9074 37.6425 53.9427 37.1037 52.6972 36.026C52.0868 35.5134 51.6002 34.8682 51.274 34.1391C50.9478 33.41 50.7905 32.616 50.8141 31.817C50.7542 30.5519 51.0333 29.2939 51.6222 28.1742C52.1542 27.2698 52.9237 26.5301 53.8463 26.0362C54.9074 25.4819 56.048 25.0974 57.227 24.8964C58.5368 24.653 59.9652 24.432 61.5122 24.2334C62.5922 24.1607 63.6499 23.8905 64.6334 23.4363C64.9018 23.2663 65.1189 23.0259 65.2614 22.741C65.4038 22.4561 65.4661 22.1376 65.4415 21.8197C65.4373 21.4756 65.3343 21.14 65.1449 20.8533C64.9555 20.5665 64.6878 20.3408 64.3739 20.2032C63.4822 19.7756 62.4992 19.576 61.5122 19.6221C60.4229 19.523 59.3355 19.8307 58.4577 20.4862C57.8258 21.0952 57.4181 21.9014 57.3012 22.7733H51.5555C51.5801 21.753 51.7808 20.7448 52.1486 19.7934C52.5184 18.8652 53.1212 18.049 53.8982 17.4245C54.8294 16.7021 55.8999 16.182 57.0417 15.8973C58.5877 15.5086 60.1783 15.3282 61.7717 15.361C63.3444 15.3277 64.9141 15.5157 66.435 15.9197C67.5695 16.2165 68.6217 16.7693 69.5117 17.5362C70.2888 18.251 70.8664 19.1576 71.1872 20.1659C71.5486 21.3173 71.7238 22.5196 71.7062 23.7268V37.136L66.0198 37.0764ZM65.5972 26.6917C65.1976 27.0233 64.7288 27.2601 64.2256 27.3845C63.6276 27.5584 62.7602 27.7446 61.6234 27.9432C60.3404 28.0898 59.1012 28.5007 57.9832 29.1501C57.6563 29.3925 57.3943 29.7127 57.2209 30.082C57.0475 30.4513 56.9681 30.858 56.9898 31.2657C56.9898 32.845 57.9783 33.6347 59.9553 33.6347C60.7122 33.6443 61.4649 33.5208 62.1794 33.2697C62.8175 33.0486 63.4104 32.7129 63.9291 32.2789C64.4159 31.8633 64.8186 31.3574 65.1153 30.789C65.4129 30.2405 65.5684 29.6257 65.5675 29.0011L65.5972 26.6917Z" fill="white"/>
<path d="M87.1416 23.1159H92.8651V29.1501C92.87 30.2437 92.6869 31.3299 92.3239 32.3608C91.9601 33.3794 91.378 34.3051 90.6187 35.0725C89.7773 35.9068 88.7654 36.5474 87.6532 36.9498C86.2965 37.4404 84.8614 37.6752 83.4199 37.6426C81.9395 37.679 80.4647 37.4443 79.068 36.9498C77.9597 36.5499 76.9488 35.9176 76.1025 35.0948C75.3403 34.3353 74.7663 33.4065 74.427 32.3832C74.0768 31.3265 73.9015 30.2192 73.908 29.1054V7.87418H79.9651V15.875H92.8354V19.8381H79.9725V28.5392C79.9044 29.6427 80.1959 30.7384 80.8029 31.6606C81.1354 32.0498 81.5561 32.3532 82.0296 32.545C82.503 32.7369 83.0155 32.8117 83.5237 32.7631C84.0293 32.8049 84.5377 32.7291 85.0095 32.5418C85.4813 32.3545 85.9039 32.0606 86.2446 31.6829C86.8797 30.7946 87.1888 29.7127 87.1194 28.6212L87.1416 23.1159Z" fill="white"/>
<path d="M106.514 37.6351C104.791 37.663 103.077 37.3856 101.45 36.8157C100.051 36.3226 98.769 35.544 97.6841 34.5287C96.6514 33.5414 95.8511 32.3351 95.3413 30.9976C94.794 29.5516 94.5224 28.0151 94.5407 26.4682C94.522 24.9065 94.804 23.3559 95.371 21.9017C95.8955 20.5609 96.711 19.3545 97.7582 18.3706C98.8462 17.3755 100.125 16.615 101.517 16.1357C103.122 15.582 104.81 15.3123 106.507 15.3386C108.181 15.3129 109.847 15.5827 111.429 16.1357C112.803 16.6208 114.064 17.3811 115.136 18.3706C116.173 19.3504 116.98 20.5486 117.501 21.8793C118.07 23.3486 118.352 24.9142 118.332 26.4906C118.353 28.0598 118.071 29.6184 117.501 31.0795C116.975 32.4097 116.168 33.6093 115.136 34.5957C114.067 35.5898 112.805 36.3507 111.429 36.8306C109.854 37.38 108.196 37.6497 106.529 37.6277M106.529 32.927C110.28 32.927 112.156 30.7716 112.156 26.4608C112.156 22.15 110.275 20.012 106.514 20.0467C102.758 20.0467 100.879 22.1872 100.879 26.4682C100.879 30.7492 102.758 32.9046 106.514 32.9344" fill="white"/>
<path d="M147.542 37.0764V24.2334C147.593 23.1002 147.241 21.9857 146.548 21.0897C146.229 20.6956 145.823 20.3814 145.363 20.172C144.902 19.9626 144.399 19.8636 143.894 19.8828C143.358 19.8715 142.826 19.9822 142.338 20.2067C141.85 20.4311 141.419 20.7636 141.077 21.1791C140.32 22.0811 139.924 23.2332 139.965 24.4122V37.0764H133.849V24.3153C133.861 23.6076 133.797 22.9007 133.656 22.2071C133.562 21.7279 133.342 21.2828 133.018 20.9183C132.702 20.5917 132.301 20.3596 131.862 20.2479C131.3 20.1042 130.721 20.0365 130.142 20.0467C127.67 20.0467 126.435 21.4249 126.435 24.1812V37.069H120.281V15.8676H126.057V18.9665C126.677 17.729 127.671 16.72 128.896 16.0836C130.151 15.547 131.507 15.2928 132.87 15.3386C133.575 15.3319 134.28 15.3892 134.975 15.51C135.554 15.6126 136.113 15.8088 136.629 16.091C137.137 16.3808 137.606 16.7364 138.022 17.1489C138.506 17.6281 138.95 18.1463 139.35 18.6984C139.9 17.6035 140.776 16.7078 141.855 16.1357C143.038 15.5731 144.336 15.2999 145.644 15.3386C146.739 15.3257 147.829 15.5072 148.861 15.875C149.787 16.2003 150.638 16.7067 151.367 17.3649C152.051 17.9957 152.605 18.755 152.998 19.5998C153.393 20.4643 153.596 21.4049 153.591 22.3561V37.054L147.542 37.0764Z" fill="white"/>
<path d="M155.801 37.0764V8.12746H161.858V18.6313C162.662 17.564 163.709 16.7055 164.911 16.1276C166.113 15.5496 167.436 15.2689 168.767 15.3088C170.158 15.2839 171.537 15.5556 172.815 16.1059C173.972 16.6122 174.999 17.3765 175.818 18.3408C176.663 19.3627 177.298 20.5426 177.686 21.8123C178.125 23.2427 178.34 24.733 178.324 26.2298C178.353 27.8551 178.103 29.4733 177.582 31.0125C177.129 32.3305 176.421 33.5456 175.499 34.5882C174.614 35.5639 173.522 36.3276 172.304 36.8231C171.017 37.3373 169.641 37.5905 168.256 37.5681C165.355 37.5681 163.195 36.5202 161.776 34.4243L161.732 37.0093L155.801 37.0764ZM166.825 33.0685C167.551 33.086 168.271 32.9336 168.929 32.6233C169.586 32.313 170.163 31.8533 170.613 31.2806C171.639 29.9614 172.164 28.3193 172.096 26.647C172.096 22.2816 170.329 20.0964 166.795 20.0914C163.336 20.0914 161.606 22.3909 161.606 26.9897C161.532 28.5901 162.061 30.1597 163.088 31.3849C163.545 31.923 164.113 32.3529 164.754 32.644C165.395 32.9351 166.092 33.0801 166.795 33.0685" fill="white"/>
<path d="M186.197 27.9433C186.216 29.3693 186.764 30.7371 187.732 31.7798C188.213 32.2577 188.788 32.6307 189.419 32.8755C190.051 33.1203 190.726 33.2317 191.402 33.2026C192.332 33.2223 193.252 33.0072 194.078 32.5769C194.431 32.4041 194.745 32.1601 195 31.8602C195.255 31.5603 195.446 31.2109 195.561 30.8337H201.9C201.258 32.9059 199.919 34.6891 198.111 35.877C196.187 37.0911 193.948 37.7055 191.676 37.6426C183.916 37.6426 180.036 33.7911 180.036 26.0883C180.006 24.5651 180.258 23.0496 180.778 21.6186C181.264 20.3349 182.023 19.1731 183.002 18.2141C184.007 17.2394 185.211 16.497 186.531 16.0389C188.07 15.5152 189.688 15.2632 191.313 15.2939C194.911 15.2939 197.629 16.3418 199.468 18.4376C201.307 20.5334 202.228 23.6945 202.233 27.9209L186.197 27.9433ZM195.895 24.4047C195.88 23.6993 195.729 23.0035 195.45 22.3561C195.208 21.8072 194.853 21.3162 194.408 20.9155C193.963 20.5148 193.439 20.2136 192.87 20.0318C192.305 19.8437 191.715 19.7481 191.12 19.7488C189.937 19.7308 188.793 20.171 187.925 20.9779C186.99 21.8766 186.439 23.1056 186.39 24.4047H195.895Z" fill="white"/>
<path d="M203.983 37.0764V15.8675H209.758V18.4078C210.192 17.7636 210.728 17.1949 211.345 16.7242C212.363 15.9732 213.565 15.5125 214.822 15.3908C215.42 15.3361 216.035 15.3088 216.668 15.3088H217.469V21.0375C216.904 20.9518 216.334 20.9095 215.763 20.9109C212.007 20.9109 210.129 22.6193 210.129 26.0362V37.0689L203.983 37.0764Z" fill="white"/>
<path d="M234.854 34.2009C234.356 35.2133 233.507 36.008 232.467 36.4357C231.208 36.9899 229.845 37.2619 228.471 37.2328C226.807 37.2857 225.151 36.9704 223.622 36.3091C222.392 35.7537 221.306 34.92 220.449 33.8731C219.633 32.8447 219.037 31.6577 218.699 30.3867C218.338 29.0666 218.156 27.7034 218.158 26.3342C218.143 24.8069 218.414 23.2904 218.959 21.8644C219.452 20.5708 220.193 19.3865 221.138 18.378C222.048 17.4199 223.143 16.6593 224.356 16.1432C225.612 15.6064 226.965 15.335 228.33 15.3461C231.231 15.3461 233.408 16.4089 234.861 18.5345V15.875H241.015V37.2924C241.046 38.7585 240.739 40.2119 240.118 41.5387C239.54 42.747 238.693 43.8049 237.642 44.6302C236.534 45.4842 235.277 46.1211 233.935 46.5075C230.981 47.3549 227.851 47.3549 224.897 46.5075C223.609 46.1423 222.398 45.544 221.324 44.742C220.348 44.0017 219.547 43.0526 218.981 41.9633C218.398 40.8106 218.105 39.5315 218.128 38.2385H223.852C223.825 38.8117 223.938 39.3828 224.181 39.9021C224.424 40.4214 224.79 40.8732 225.246 41.2184C226.333 41.9696 227.635 42.3412 228.953 42.2762C230.436 42.3238 231.896 41.8931 233.119 41.047C233.659 40.6794 234.099 40.1809 234.397 39.5976C234.695 39.0144 234.842 38.365 234.824 37.7096L234.854 34.2009ZM229.79 32.8227C230.492 32.8419 231.189 32.7118 231.837 32.4409C232.485 32.17 233.068 31.7644 233.549 31.2509C234.588 30.0733 235.121 28.5308 235.032 26.9599C235.032 22.4207 233.282 20.151 229.783 20.151C226.284 20.151 224.532 22.3064 224.527 26.6172C224.439 28.2581 224.968 29.8722 226.009 31.1391C226.474 31.6818 227.053 32.1141 227.705 32.4052C228.356 32.6963 229.063 32.8389 229.776 32.8227" fill="white"/>
</g>
<defs>
<filter id="filter0_d_2_3" x="-4" y="0" width="53.2612" height="53.4571" filterUnits="userSpaceOnUse" color-interpolation-filters="sRGB">
<feFlood flood-opacity="0" result="BackgroundImageFix"/>
<feColorMatrix in="SourceAlpha" type="matrix" values="0 0 0 0 0 0 0 0 0 0 0 0 0 0 0 0 0 0 127 0" result="hardAlpha"/>
<feOffset dy="4"/>
<feGaussianBlur stdDeviation="2"/>
<feComposite in2="hardAlpha" operator="out"/>
<feColorMatrix type="matrix" values="0 0 0 0 0 0 0 0 0 0 0 0 0 0 0 0 0 0 0.25 0"/>
<feBlend mode="normal" in2="BackgroundImageFix" result="effect1_dropShadow_2_3"/>
<feBlend mode="normal" in="SourceGraphic" in2="effect1_dropShadow_2_3" result="shape"/>
</filter>
<clipPath id="clip0_2_3">
<rect width="241" height="55" fill="white"/>
</clipPath>
</defs>
</svg>
