<svg width="25" height="25" viewBox="0 0 25 25" fill="none" xmlns="http://www.w3.org/2000/svg">
<path d="M3 12.8958C3 8.23125 3 5.89792 4.44896 4.44896C5.89792 3 8.23021 3 12.8958 3C17.5604 3 19.8937 3 21.3427 4.44896C22.7917 5.89792 22.7917 8.23021 22.7917 12.8958C22.7917 17.5604 22.7917 19.8937 21.3427 21.3427C19.8937 22.7917 17.5615 22.7917 12.8958 22.7917C8.23125 22.7917 5.89792 22.7917 4.44896 21.3427C3 19.8937 3 17.5615 3 12.8958Z" stroke="white" stroke-width="0.9375"/>
<path d="M6.64583 14.4583L8.20833 9.77084L10.1615 14.4583M6.64583 14.4583L6.125 16.0208M6.64583 14.4583H10.1615M10.1615 14.4583L10.8125 16.0208M13.4167 12.8958V10.5C13.4167 10.3063 13.4167 10.2083 13.4417 10.1302C13.4673 10.0521 13.5111 9.98123 13.5694 9.92329C13.6277 9.86536 13.6988 9.82204 13.7771 9.79688C13.8542 9.77084 13.951 9.77084 14.1458 9.77084H15.5C15.9144 9.77084 16.3118 9.93546 16.6049 10.2285C16.8979 10.5215 17.0625 10.9189 17.0625 11.3333C17.0625 11.7477 16.8979 12.1452 16.6049 12.4382C16.3118 12.7312 15.9144 12.8958 15.5 12.8958H13.4167ZM13.4167 12.8958V16.0208M19.6667 9.77084V16.0208" stroke="white" stroke-width="0.9375" stroke-linecap="round" stroke-linejoin="round"/>
</svg>
