<svg width="45" height="45" viewBox="0 0 45 45" fill="none" xmlns="http://www.w3.org/2000/svg">
<g clip-path="url(#clip0_30_100)">
<path d="M40.957 23.7305C40.5312 22.1398 39.7388 20.6709 38.6433 19.4415C37.5478 18.212 36.1796 17.2562 34.6484 16.6505C33.1171 16.0448 31.4653 15.8061 29.8252 15.9534C28.1851 16.1007 26.6023 16.6301 25.2035 17.499L28.0846 5.9959C28.156 5.7101 28.1359 5.40908 28.0271 5.13531C27.9183 4.86154 27.7263 4.62887 27.4781 4.47012C26.2821 3.71488 24.9463 3.20795 23.5504 2.9795C22.1544 2.75104 20.7268 2.80573 19.3524 3.1403C17.978 3.47487 16.6849 4.0825 15.5502 4.92702C14.4154 5.77153 13.4621 6.83569 12.747 8.05616C12.032 9.27663 11.5697 10.6285 11.3877 12.0312C11.2058 13.434 11.3079 14.8591 11.6879 16.2216C12.068 17.5841 12.7182 18.8563 13.6 19.9623C14.4817 21.0684 15.5769 21.9858 16.8205 22.66L5.41756 25.9172C5.13428 25.9979 4.88347 26.1655 4.70055 26.3963C4.51762 26.6272 4.41181 26.9097 4.39803 27.2039C4.28981 29.6049 5.00489 31.9709 6.42488 33.91C7.84486 35.8492 9.88457 37.2451 12.2062 37.8668C13.1017 38.1073 14.0248 38.2296 14.9519 38.2307C16.3648 38.2269 17.7625 37.9397 19.0624 37.386C20.3622 36.8322 21.5377 36.0233 22.5192 35.007C23.5007 33.9907 24.2683 32.7878 24.7765 31.4695C25.2847 30.1512 25.5231 28.7444 25.4777 27.3322L33.9996 35.5799C34.2115 35.7849 34.4825 35.9181 34.7743 35.9607C35.0661 36.0033 35.3639 35.9531 35.6256 35.8172C37.7578 34.7109 39.4486 32.9098 40.418 30.7119C41.3875 28.5141 41.5777 26.0511 40.957 23.7305ZM19.6875 22.5C19.6875 21.9437 19.8524 21.4 20.1615 20.9375C20.4705 20.4749 20.9098 20.1145 21.4237 19.9016C21.9376 19.6887 22.5031 19.633 23.0487 19.7415C23.5942 19.8501 24.0954 20.1179 24.4887 20.5113C24.8821 20.9046 25.1499 21.4057 25.2584 21.9513C25.367 22.4969 25.3113 23.0624 25.0984 23.5763C24.8855 24.0902 24.525 24.5295 24.0625 24.8385C23.6 25.1475 23.0562 25.3125 22.5 25.3125C21.7541 25.3125 21.0387 25.0162 20.5112 24.4887C19.9838 23.9613 19.6875 23.2459 19.6875 22.5ZM14.0625 13.3594C14.062 12.0561 14.3909 10.7739 15.0186 9.63174C15.6463 8.48959 16.5524 7.52456 17.6528 6.82628C18.7531 6.12799 20.0121 5.71908 21.3128 5.63752C22.6135 5.55596 23.9138 5.8044 25.0928 6.35976L22.4596 16.875C21.452 16.8826 20.465 17.1606 19.6016 17.6801C18.7383 18.1996 18.0303 18.9414 17.5517 19.8281C16.4776 19.1256 15.5958 18.166 14.9865 17.0364C14.3771 15.9068 14.0595 14.6429 14.0625 13.3594ZM18.8086 34.3775C17.6802 35.0295 16.4053 35.3858 15.1024 35.4134C13.7995 35.4409 12.5108 35.1387 11.3558 34.535C10.2009 33.9312 9.2173 33.0454 8.49628 31.9598C7.77527 30.8742 7.34025 29.6241 7.23163 28.3254L17.6572 25.3477C18.1529 26.192 18.8604 26.8924 19.7097 27.3795C20.5591 27.8666 21.5209 28.1236 22.5 28.125H22.6599C22.5892 29.4054 22.1999 30.6479 21.5273 31.7398C20.8548 32.8316 19.9203 33.7383 18.8086 34.3775ZM37.4713 30.3346C36.9024 31.3216 36.122 32.1704 35.1861 32.8201L27.3955 25.2809C27.894 24.4052 28.1475 23.4115 28.1292 22.404C28.111 21.3966 27.8217 20.4127 27.2918 19.5557C28.7792 18.8048 30.4693 18.5543 32.1106 18.8415C33.7518 19.1288 35.2564 19.9383 36.4004 21.1497C37.5445 22.3611 38.2667 23.9095 38.4596 25.5645C38.6526 27.2195 38.3059 28.8925 37.4713 30.3346Z" fill="white"/>
</g>
<defs>
<clipPath id="clip0_30_100">
<rect width="45" height="45" fill="white"/>
</clipPath>
</defs>
</svg>
