<svg width="25" height="25" viewBox="0 0 25 25" fill="none" xmlns="http://www.w3.org/2000/svg">
<path d="M12.5 20.8334C10.1736 20.8334 8.20315 20.0261 6.58856 18.4115C4.97398 16.7969 4.16669 14.8264 4.16669 12.5C4.16669 10.1736 4.97398 8.20315 6.58856 6.58857C8.20315 4.97398 10.1736 4.16669 12.5 4.16669C13.6979 4.16669 14.8438 4.41391 15.9375 4.90836C17.0313 5.4028 17.9688 6.11044 18.75 7.03127V5.20836C18.75 4.91322 18.85 4.666 19.05 4.46669C19.25 4.26739 19.4972 4.16739 19.7917 4.16669C20.0861 4.166 20.3337 4.266 20.5344 4.46669C20.7351 4.66739 20.8347 4.91461 20.8334 5.20836V10.4167C20.8334 10.7118 20.7334 10.9594 20.5334 11.1594C20.3334 11.3594 20.0861 11.4591 19.7917 11.4584H14.5834C14.2882 11.4584 14.041 11.3584 13.8417 11.1584C13.6424 10.9584 13.5424 10.7111 13.5417 10.4167C13.541 10.1222 13.641 9.87502 13.8417 9.67502C14.0424 9.47502 14.2896 9.37502 14.5834 9.37502H17.9167C17.3611 8.4028 16.6018 7.63891 15.6386 7.08336C14.6754 6.5278 13.6292 6.25002 12.5 6.25002C10.7639 6.25002 9.28822 6.85766 8.07294 8.07294C6.85766 9.28822 6.25002 10.7639 6.25002 12.5C6.25002 14.2361 6.85766 15.7118 8.07294 16.9271C9.28822 18.1424 10.7639 18.75 12.5 18.75C13.6806 18.75 14.7615 18.4507 15.7427 17.8521C16.724 17.2535 17.4834 16.4504 18.0209 15.4427C18.1597 15.1997 18.3552 15.0306 18.6073 14.9354C18.8594 14.8403 19.1153 14.8358 19.375 14.9219C19.6528 15.0087 19.8525 15.191 19.974 15.4688C20.0955 15.7466 20.0868 16.007 19.9479 16.25C19.2361 17.6389 18.2205 18.75 16.9011 19.5834C15.5816 20.4167 14.1146 20.8334 12.5 20.8334Z" fill="white"/>
</svg>
