<svg width="35" height="35" viewBox="0 0 35 35" fill="none" xmlns="http://www.w3.org/2000/svg">
<g clip-path="url(#clip0_30_111)">
<path d="M19.8188 19.8187C20.4116 19.2259 20.7791 18.4056 20.7791 17.5C20.7791 16.5944 20.4116 15.7741 19.8188 15.1812C18.5281 13.8906 5.11877 5.11874 5.11877 5.11874C5.11877 5.11874 13.8688 18.5281 15.1594 19.8187C15.464 20.1271 15.8268 20.3719 16.2267 20.539C16.6266 20.7061 17.0557 20.7921 17.4891 20.7921C17.9225 20.7921 18.3516 20.7061 18.7515 20.539C19.1514 20.3719 19.5142 20.1271 19.8188 19.8187Z" fill="white"/>
<path d="M17.5 0V6.5625H19.6875V3.47813C26.5847 4.56094 31.7975 10.4606 31.7975 17.5766C31.797 19.7815 31.2854 21.9564 30.3026 23.9302C29.3199 25.9041 27.893 27.6232 26.1338 28.9526C24.3746 30.2819 22.3312 31.1853 20.164 31.5918C17.9969 31.9982 15.765 31.8967 13.6437 31.2951C11.5223 30.6935 9.56941 29.6082 7.93826 28.1246C6.3071 26.641 5.04215 24.7993 4.24277 22.7444C3.44339 20.6894 3.13135 18.4771 3.33116 16.2812C3.53097 14.0853 4.2372 11.9657 5.39435 10.0888L3.3906 7.19688C1.20275 10.1858 0.0277448 13.7959 0.0371656 17.5C0.0371656 20.9612 1.06352 24.3446 2.98645 27.2225C4.90937 30.1003 7.6425 32.3434 10.8402 33.6679C14.0379 34.9924 17.5566 35.339 20.9512 34.6637C24.3459 33.9885 27.4641 32.3218 29.9115 29.8744C32.359 27.427 34.0257 24.3088 34.7009 20.9141C35.3762 17.5194 35.0296 14.0007 33.7051 10.803C32.3805 7.60533 30.1375 4.87221 27.2596 2.94928C24.3818 1.02636 20.9983 0 17.5372 0L17.5 0Z" fill="white"/>
</g>
<defs>
<clipPath id="clip0_30_111">
<rect width="35" height="35" fill="white"/>
</clipPath>
</defs>
</svg>
